<svg t="1698391293473" class="icon" viewBox="0 0 1024 1024" version="1.1" xmlns="http://www.w3.org/2000/svg" p-id="23071" id="mx_n_1698391293474" width="200" height="200"><path d="M178.914344 78.158081c125.757169 15.734356 258.066567 33.17968 341.749478 140.758838 136.564305-65.342194 282.59317-59.031465 425.122327-11.501962 3.805676 245.078765 7.611352 490.181065 11.480472 735.280296-193.010899-64.322981-272.845155-59.356876-459.58421 2.889817-129.584334-106.744139-279.258215-49.26196-422.216137-5.740748l-8.507768-748.063437c-0.183172-18.013259 54.308907-23.366174 54.715159 3.604084l8.28571 592.68974c0.265036 18.296715 54.776557 14.656815 54.633295-4.722558L178.914344 78.158081 178.914344 78.158081 178.914344 78.158081zM597.138564 411.092799c-15.023158 10.07445-26.626427 38.10383 1.588171 43.25413 6.818289 1.26276 12.21009-1.932002 25.482371-6.940063 33.32192-13.577227 57.81066-15.734356 94.430696-13.700023 29.901007 1.648546 86.405929 31.185256 109.043509 25.995047 18.259876-4.194532 17.463744-23.125697 4.744048-31.795147-33.363875-22.75833-80.71123-34.605146-122.683157-37.59627C677.23581 388.008035 625.939517 391.796314 597.138564 411.092799L597.138564 411.092799 597.138564 411.092799zM586.552461 303.697837c-18.077727 12.598946-31.509644 46.939055 2.89084 52.597939 8.345062 1.364067 14.818497-2.64627 30.858822-9.018398 40.181141-17.302061 69.940932-20.456914 114.518197-18.828834 36.436864 1.324158 105.830327 35.988656 133.24777 29.150924 22.065552-5.51869 20.679995-28.519544 5.047969-38.757722-41.117466-26.930349-98.927103-40.263006-150.1006-42.969651C683.445232 273.794783 621.156584 279.57544 586.552461 303.697837L586.552461 303.697837zM586.552461 303.697837" fill="#a4579d" p-id="23072"></path></svg>