<svg t="1698387140681" class="icon" viewBox="0 0 1024 1024" version="1.1" xmlns="http://www.w3.org/2000/svg" p-id="8278" width="200" height="200"><path d="M337.92 163.84c9.9328 0 18.78016 4.72064 24.39168 12.04224 67.08224 22.0672 115.5072 72.84736 145.23392 152.34048a30.73024 30.73024 0 0 1 24.8832 28.3648L532.48 358.4v61.44c0 69.9392 55.86944 126.83264 125.40928 128.49152l3.1232 0.04096h9.17504c69.9392 0 126.83264-55.86944 128.49152-125.40928L798.72 419.84v-60.79488a30.72 30.72 0 0 1 61.3888-1.81248l0.0512 1.81248V419.84c0 96.27648-71.6288 175.8208-164.49536 188.27264 0.43008 2.01728 0.65536 4.12672 0.65536 6.28736v138.24h46.08a30.72 30.72 0 0 1 30.72 30.72v10.24a30.72 30.72 0 0 1-30.72 30.72h-143.36a30.72 30.72 0 0 1-30.72-30.72v-10.24a30.72 30.72 0 0 1 30.72-30.72H634.88V614.4c0-2.1504 0.22528-4.27008 0.64512-6.2976-91.7504-12.288-162.7648-90.09152-164.4544-184.81152L471.04 419.84v-61.44c0-8.02816 3.072-15.32928 8.11008-20.79744-35.21536-31.488-83.47648-70.49216-110.51008-67.30752v448.19456c1.61792 47.90272-47.49312 95.20128-115.48672 108.72832-72.86784 14.47936-139.8272-15.3088-149.56544-66.56-9.728-51.24096 41.44128-104.51968 114.29888-119.00928 32.4608-6.4512 63.744-4.11648 89.32352 4.98688L307.2 194.56a30.72 30.72 0 0 1 30.72-30.72z m337.92 40.96a92.16 92.16 0 0 1 92.16 92.16v122.88a92.16 92.16 0 0 1-92.16 92.16h-20.48a92.16 92.16 0 0 1-92.16-92.16V296.96a92.16 92.16 0 0 1 92.16-92.16h20.48z" fill="#000000" p-id="8279"></path></svg>