<svg t="1699094116951" class="icon" viewBox="0 0 1024 1024" version="1.1" xmlns="http://www.w3.org/2000/svg" p-id="4074" id="mx_n_1699094116953" width="200" height="200"><path d="M512 996C244.694 996 28 779.306 28 512 28 244.694 244.694 28 512 28c267.306 0 484 216.694 484 484 0 267.306-216.694 484-484 484z m0-72c227.541 0 412-184.459 412-412S739.541 100 512 100 100 284.459 100 512s184.459 412 412 412z m-84.295-291.711L740.75 301.336c11.692-12.361 30.744-12.46 42.553-0.22l0.21 0.22 27.31 28.871c2.903 3.069 2.903 8.013 0 11.081L449.139 723.664c-11.693 12.361-30.745 12.46-42.553 0.22l-0.212-0.22-25.805-27.283-0.051 0.056-167.34-176.914c-2.904-3.069-2.904-8.012 0-11.081l27.309-28.872c11.692-12.36 30.744-12.46 42.552-0.22l0.21 0.22 144.456 152.72v-0.001z" fill="#F7F8FC" p-id="4075"></path></svg>