<!-- <svg t="1698744085157" class="icon" viewBox="0 0 1024 1024" version="1.1" xmlns="http://www.w3.org/2000/svg" p-id="9113" width="200" height="200"><path d="M981.333333 917.333333a21.333333 21.333333 0 0 1-21.333333 21.333334H64a21.333333 21.333333 0 0 1 0-42.666667h896a21.333333 21.333333 0 0 1 21.333333 21.333333zM490.666667 170.666667h469.333333a21.333333 21.333333 0 0 0 0-42.666667H490.666667a21.333333 21.333333 0 0 0 0 42.666667z m469.333333 341.333333H64a21.333333 21.333333 0 0 0 0 42.666667h896a21.333333 21.333333 0 0 0 0-42.666667zM76.193333 446.32C96 461.16 121.953333 469.333333 149.333333 469.333333s53.333333-8.173333 73.14-23.013333c21.333333-16 33.526667-38.666667 33.526667-62.32V179.266667q3.206667 3.58 6.586667 6.813333a21.473333 21.473333 0 0 0 2.953333 2.366667 64.24 64.24 0 0 1 13.333333 12c8.666667 10.22 15.84 24.18 20.733334 40.373333a21.333333 21.333333 0 0 0 40.84-12.346667c-6.666667-22.053333-16.44-40.773333-29.04-55.626666a107.46 107.46 0 0 0-20.493334-18.78c-8.813333-8.806667-16.526667-20.666667-22.36-34.42-9.033333-21.333333-11.813333-42.666667-12.553333-56.78A21.333333 21.333333 0 0 0 234.666667 42.666667h-0.566667A21.333333 21.333333 0 0 0 213.333333 64v251.56C195 304.613333 172.666667 298.666667 149.333333 298.666667c-27.38 0-53.333333 8.173333-73.14 23.013333-21.333333 16-33.526667 38.666667-33.526666 62.32s12.22 46.34 33.526666 62.32z" fill="#000000" p-id="9114"></path></svg>
 -->

 <svg t="1698820836964" class="icon" viewBox="0 0 1024 1024" version="1.1" xmlns="http://www.w3.org/2000/svg" p-id="12221" width="128" height="128"><path d="M512 149.333333a21.333333 21.333333 0 0 1 21.333333-21.333333h426.666667a21.333333 21.333333 0 0 1 0 42.666667H533.333333a21.333333 21.333333 0 0 1-21.333333-21.333334z m448 746.666667H64a21.333333 21.333333 0 0 0 0 42.666667h896a21.333333 21.333333 0 0 0 0-42.666667zM64 554.666667h896a21.333333 21.333333 0 0 0 0-42.666667H64a21.333333 21.333333 0 0 0 0 42.666667zM347.426667 42.666667A121.866667 121.866667 0 0 0 256 83.92 121.866667 121.866667 0 0 0 164.573333 42.666667C97.333333 42.666667 42.666667 97.333333 42.666667 164.573333c0 29.046667 2.38 56.293333 31.64 95.653334 26.786667 36 75.426667 82.78 167.88 161.333333a21.333333 21.333333 0 0 0 27.626666 0c92.453333-78.58 141.093333-125.333333 167.88-161.333333 29.26-39.333333 31.64-66.606667 31.64-95.653334C469.333333 97.333333 414.666667 42.666667 347.426667 42.666667z" fill="#060606" p-id="12222"></path></svg>