<svg t="1699085834828" class="icon" viewBox="0 0 1024 1024" version="1.1" xmlns="http://www.w3.org/2000/svg" p-id="4813" width="200" height="200"><path d="M512 21.333333C241.450667 21.333333 21.333333 241.450667 21.333333 512S241.450667 1002.666667 512 1002.666667 1002.666667 782.549333 1002.666667 512 782.549333 21.333333 512 21.333333z m0 938.666667C264.96 960 64 759.04 64 512S264.96 64 512 64 960 264.96 960 512 759.04 960 512 960z" p-id="4814" fill="#f2f2f2"></path><path d="M554.666667 320h-128a21.333333 21.333333 0 0 0-21.333334 21.333333v210.346667a22.869333 22.869333 0 0 0 0 5.973333V682.666667a21.333333 21.333333 0 0 0 42.666667 0v-106.666667h106.709333c35.242667 0 63.957333 28.714667 63.957334 64v42.666667a21.333333 21.333333 0 0 0 42.666666 0v-42.666667a106.666667 106.666667 0 0 0-42.709333-85.333333 106.666667 106.666667 0 0 0 42.709333-85.333334v-42.666666c0-58.794667-47.829333-106.666667-106.666666-106.666667z m64 149.333333c0 35.285333-28.714667 64-64 64h-106.666667v-170.666666H554.666667c35.285333 0 64 28.714667 64 64v42.666666z" p-id="4815" fill="#ffffff"></path></svg>