<svg t="1698390692692" class="icon" viewBox="0 0 1024 1024" version="1.1" xmlns="http://www.w3.org/2000/svg" p-id="12005" width="200" height="200"><path d="M938.666667 298.666667H341.333333l331.946667-197.546667a21.333333 21.333333 0 0 0 7.253333-29.013333l-10.666666-18.773334a21.76 21.76 0 0 0-29.866667-8.106666L187.733333 298.666667H85.333333a42.666667 42.666667 0 0 0-42.666666 42.666666v512a42.666667 42.666667 0 0 0 42.666666 42.666667h853.333334a42.666667 42.666667 0 0 0 42.666666-42.666667V341.333333a42.666667 42.666667 0 0 0-42.666666-42.666666zM341.333333 810.666667a213.333333 213.333333 0 1 1 213.333334-213.333334 213.333333 213.333333 0 0 1-213.333334 213.333334z m512-21.333334a21.333333 21.333333 0 0 1-21.333333 21.333334h-128a21.333333 21.333333 0 0 1-21.333333-21.333334v-42.666666a21.333333 21.333333 0 0 1 21.333333-21.333334h128a21.333333 21.333333 0 0 1 21.333333 21.333334z m0-170.666666a21.333333 21.333333 0 0 1-21.333333 21.333333h-128a21.333333 21.333333 0 0 1-21.333333-21.333333v-42.666667a21.333333 21.333333 0 0 1 21.333333-21.333333h128a21.333333 21.333333 0 0 1 21.333333 21.333333z m0-170.666667a21.333333 21.333333 0 0 1-21.333333 21.333333h-128a21.333333 21.333333 0 0 1-21.333333-21.333333v-42.666667a21.333333 21.333333 0 0 1 21.333333-21.333333h128a21.333333 21.333333 0 0 1 21.333333 21.333333zM341.333333 512a85.333333 85.333333 0 1 0 85.333334 85.333333 85.333333 85.333333 0 0 0-85.333334-85.333333z" p-id="12006" fill="#a4579d"></path></svg>