<svg t="1698887418683" class="icon" viewBox="0 0 1024 1024" version="1.1" xmlns="http://www.w3.org/2000/svg" p-id="18977" width="200" height="200"><path d="M1023.453507 368.829818a51.874124 51.874124 0 0 0-14.265384-28.012027 54.7272 54.7272 0 0 0-12.968531-9.596713L850.972045 259.375417a43.703949 43.703949 0 0 0-10.374824-3.242133 49.410103 49.410103 0 0 0-12.968531-23.343356l-36.182202-36.182201a49.799159 49.799159 0 0 0-23.343355-12.968531 50.966327 50.966327 0 0 0-3.371818-10.374825L692.885653 28.276196a48.761676 48.761676 0 0 0-9.596712-12.968531A51.874124 51.874124 0 0 0 655.276914 0.653225a51.096012 51.096012 0 0 0-44.352376 14.395069l-108.676289 108.546604a51.874124 51.874124 0 0 0 0 72.494088 51.874124 51.874124 0 0 0 12.968531 9.467027l144.728805 72.494088a51.874124 51.874124 0 0 0 10.50451 3.242133 49.410103 49.410103 0 0 0 12.968531 23.343356l36.182201 36.182201a50.966327 50.966327 0 0 0 23.343356 12.968531 60.044298 60.044298 0 0 0 3.242132 10.374825l72.494088 144.728805a49.410103 49.410103 0 0 0 9.596713 12.968531 50.966327 50.966327 0 0 0 72.364403 0l108.676289-108.546604a51.874124 51.874124 0 0 0 14.135699-44.482061zM683.288941 232.271187l-144.858491-72.494088L647.106739 51.878922l72.364403 144.85849z m36.182201 36.182201l36.182201-36.182201 36.311887 36.182201-36.311887 36.182202z m144.85849 217.222893l-72.364402-144.85849 36.182201-36.182201L972.746551 376.999992z" fill="#ffffff" p-id="18978"></path><path d="M304.737523 357.287825c-77.811186 77.811186-129.685309 129.685309-253.405094 129.685309a51.096012 51.096012 0 0 0-36.182202 87.407899L272.445881 831.28763a79.108039 79.108039 0 0 0-21.398076 14.784126 76.903388 76.903388 0 1 0 108.676289 108.676289A79.108039 79.108039 0 0 0 373.859793 933.739025l75.73622 75.73622A51.874124 51.874124 0 0 0 537.003912 972.644618c0-123.5901 87.667269-211.257369 129.685309-253.405095a255.9988 255.9988 0 0 0-361.951698-361.951698z m18.155943 561.278019a25.937062 25.937062 0 1 1 0-36.311887 25.937062 25.937062 0 0 1 0 36.311887z m307.743239-235.378837C586.5437 727.150327 485.778215 828.045498 485.778215 972.644618 413.413812 900.4099 123.696831 610.822605 51.980855 538.328517c144.85849 0 209.57146-64.842655 289.587296-144.728805a204.773103 204.773103 0 1 1 289.068554 289.587295z" fill="#ffffff" p-id="18979"></path></svg>